<?xml version="1.0" encoding="utf-8"?>
<!-- Generator: Adobe Illustrator 15.0.0, SVG Export Plug-In . SVG Version: 6.00 Build 0)  -->
<!DOCTYPE svg PUBLIC "-//W3C//DTD SVG 1.1//EN" "http://www.w3.org/Graphics/SVG/1.1/DTD/svg11.dtd">
<svg version="1.1" id="Layer_2" xmlns="http://www.w3.org/2000/svg" xmlns:xlink="http://www.w3.org/1999/xlink" x="0px" y="0px"
	 width="44px" height="65px" viewBox="0 0 44 65" enable-background="new 0 0 44 65" xml:space="preserve">
<g>
	<path fill="#FFFFFF" d="M37.91,30.438v10.869c0,0,0.105,2.735-2.825,2.735c-3.069,0-3.125-2.735-3.125-2.735s0-6.176,0-6.416
		s-0.336-1.909-2.319-1.909c-2.625,0-2.67,1.877-2.67,1.877V54.08c0,0,0.029,1.863-2.464,1.863C22,55.943,22,53.96,22,53.96V40.016
		c0,0,0-2.945-3.805-2.945c-4.054,0-3.967,3.125-3.967,3.125v3.728c0,0-0.121,2.945-4.688,2.945s-4.628-4.509-4.628-4.509V29.938
		C3.168,28.976,0,26.671,0,26.671v29.332C0,56.003,2.988,65,22,65c19.012,0,22-8.695,22-8.695V26.671
		C41.062,29.5,37.91,30.438,37.91,30.438z"/>
	<path fill="#FFFFFF" d="M22,0C1.688,0,0,19.875,0,19.875v3.062C8.438,29.188,22,29,22,29s13.562,0.188,22-6.062v-3.062
		C44,19.875,42.312,0,22,0z M22,25c-11.75,0-14.312-2.375-14.312-2.375C13.938,19.75,22,19.875,22,19.875s8.062-0.125,14.312,2.75
		C36.312,22.625,33.75,25,22,25z M22,12.625c-9.562,0-17.688,2.938-17.688,2.938C8.875,2.625,22,3.062,22,3.062
		s13.125-0.438,17.688,12.5C39.688,15.562,31.562,12.625,22,12.625z"/>
</g>
</svg>
