<svg width="32" height="32" fill="none" xmlns="http://www.w3.org/2000/svg">
  <path fill="#EE3643" d="M0 0h32v32H0z"/>
  <path fill-rule="evenodd" clip-rule="evenodd" d="M6 6C5 6 5 7 5 7v5c0 .96 1 1 1 1h2.82c.62 0 .5.43.5.43s-.78 4.27-.87 5c-.08.71-.6 1.17-.6 1.17s-1.3.4-1.57.55C6 20.3 6 21 6 21h11v-.37c0-.48-2.56-1.03-3.4-1.11-.83-.1-.66-.66-.66-.66l.34-2.86h.96l.36-2h-.96l.1-1h2.76c1.86-.2 3.5-1.18 3.5-1.18V7.5C18.53 6.43 15.88 6 15.88 6H6Zm18.62 2.7h4.04c.18 0 .33.3.33.74 0 .45-.15.86-.33.86h-4.04c-.2.75-.66 1.7-1.2 1.7H21V7h2.42c.54 0 1 .95 1.2 1.7ZM6.6 26c-.6 0-.6-.67-.6-.67V22h11v3.35c0 .59-.64.65-.64.65H6.6ZM16 7.5c0-.28-.14-.5-.31-.5H6.3c-.17 0-.31.22-.31.5s.14.5.31.5h9.38c.17 0 .31-.22.31-.5Z" fill="#fff"/>
</svg>
