<svg width="108" height="18" fill="#fff" xmlns="http://www.w3.org/2000/svg">
  <path fill-rule="evenodd" clip-rule="evenodd" d="M103.85 2.66v14.79h-2.12V2.65h-3.75V1.03h9.62v1.64h-3.75Zm-8.14 8.7c-.37.46-.83.79-1.38.98-.56.2-1.22.3-1.99.3A11.97 11.97 0 0 1 90 12.4v5.05h-2.12V1.25c.6-.17 1.2-.3 1.8-.36.6-.07 1.25-.11 1.96-.11.94 0 1.74.1 2.4.3.65.19 1.18.51 1.59.97.4.45.7 1.05.9 1.8.18.76.27 1.69.27 2.8 0 1.14-.09 2.1-.27 2.86a4.62 4.62 0 0 1-.82 1.85Zm-1.2-6.82a3.3 3.3 0 0 0-.55-1.34 2 2 0 0 0-.95-.7 4.2 4.2 0 0 0-1.37-.2H90V11h1.64c.53 0 .99-.07 1.37-.2a2 2 0 0 0 .95-.7c.25-.33.44-.77.55-1.34.12-.56.18-1.26.18-2.11 0-.85-.06-1.55-.18-2.11ZM82.6 13.22h-4.7l-1.05 4.23h-2.12l4-16.43h3.05l3.99 16.43h-2.11l-1.06-4.23Zm-2.3-9.86h-.1l-1.94 8.22h3.99L80.3 3.36ZM70.16 5.24h-.12l-3.4 10.1h-2.12l-3.4-10.1H61l-.7 12.21h-2.12l.94-16.43h2.58l3.83 11.26h.1l3.82-11.26h2.58l.94 16.43h-2.1l-.71-12.2ZM54.38 15.92c-.44.65-.97 1.1-1.59 1.37-.61.26-1.32.4-2.12.4s-1.5-.14-2.13-.4a3.69 3.69 0 0 1-1.58-1.37 7.21 7.21 0 0 1-1-2.6 20.56 20.56 0 0 1-.34-4.09c0-1.64.11-3 .34-4.1a7.21 7.21 0 0 1 1-2.59c.44-.64.97-1.1 1.58-1.36.62-.27 1.33-.4 2.13-.4.8 0 1.5.13 2.12.4.62.27 1.15.72 1.59 1.36.44.64.77 1.5 1 2.6.22 1.08.34 2.45.34 4.1 0 1.64-.12 3-.34 4.09a7.21 7.21 0 0 1-1 2.6ZM53.36 5.76a8.2 8.2 0 0 0-.65-2.16c-.26-.53-.58-.9-.94-1.1-.36-.2-.73-.31-1.1-.31-.38 0-.74.1-1.1.3-.36.2-.68.58-.94 1.1a8.2 8.2 0 0 0-.65 2.17c-.16.9-.25 2.06-.25 3.47 0 1.41.09 2.57.25 3.48.17.9.38 1.63.65 2.16.26.53.58.9.94 1.1.36.2.72.3 1.1.3.37 0 .74-.1 1.1-.3.36-.2.68-.57.94-1.1a8.2 8.2 0 0 0 .65-2.16c.16-.91.24-2.07.24-3.48 0-1.4-.08-2.56-.24-3.47ZM40.69 9.94h-4.93v7.51h-2.11V1.02h2.11v7.27h4.93V1.02h2.11v16.43h-2.1V9.94Zm-11.15 7.51-2.94-7.04-2.93 7.04h-2.11L25.08 9 21.9 1.02h2.11l2.58 6.57 2.59-6.57h2.11L28.13 9l3.52 8.45h-2.11ZM12.28 1.02h7.99v1.64H14.4v5.4h5.16V9.7H14.4v6.1h5.87v1.65h-7.99V1.02ZM6.65 17.45H4.54V2.65H.78V1.03h9.62v1.64H6.65v14.79Z" />
</svg>
